<svg width="140" height="140" viewBox="0 0 140 140" fill="none" xmlns="http://www.w3.org/2000/svg">
<rect width="140" height="140" rx="8" fill="white"/>
<mask id="path-2-inside-1_148_227" fill="white">
<path fill-rule="evenodd" clip-rule="evenodd" d="M129.465 125.576C128.411 79.6048 105.155 39.1191 70.0001 14.4237C34.8457 39.1191 11.5891 79.6048 10.5349 125.576C29.193 116.939 49.1944 112.254 70.0002 112.254C90.8059 112.254 110.807 116.939 129.465 125.576Z"/>
</mask>
<path d="M129.465 125.576L119.383 147.356L154.342 163.539L153.459 125.026L129.465 125.576ZM70.0001 14.4237L83.7959 -5.21493L70.0001 -14.9062L56.2043 -5.21493L70.0001 14.4237ZM10.5349 125.576L-13.4588 125.026L-14.3419 163.539L20.617 147.356L10.5349 125.576ZM153.459 125.026C152.223 71.123 124.93 23.681 83.7959 -5.21493L56.2043 34.0623C85.3791 54.5571 104.599 88.0865 105.472 126.126L153.459 125.026ZM56.2043 -5.21493C15.0702 23.681 -12.2227 71.1231 -13.4588 125.026L34.5286 126.126C35.4009 88.0866 54.6211 54.5571 83.7959 34.0623L56.2043 -5.21493ZM20.617 147.356C36.2982 140.097 52.8725 136.254 70.0002 136.254V88.254C45.5163 88.254 22.0878 93.7815 0.452807 103.797L20.617 147.356ZM70.0002 136.254C87.1278 136.254 103.702 140.097 119.383 147.356L139.547 103.797C117.912 93.7815 94.484 88.254 70.0002 88.254V136.254Z" fill="#161616" mask="url(#path-2-inside-1_148_227)"/>
</svg>
