<svg xmlns="http://www.w3.org/2000/svg" width="100" height="100" fill="none" viewBox="0 0 100 100">
  <rect width="56.571" height="70.714" x="19.357" y="13.357" stroke="#DBDBDB" stroke-width="4.714" rx="7.071"/>
  <mask id="a" width="38" height="18" x="46" y="69" fill="#000" maskUnits="userSpaceOnUse">
    <path fill="#fff" d="M46 69h38v18H46z"/>
    <path d="M50.71 84.146a1.42 1.42 0 0 1-1.034-.424 1.373 1.373 0 0 1-.424-1.034 1.357 1.357 0 0 1 .424-1.02 1.42 1.42 0 0 1 1.034-.424c.388 0 .726.141 1.013.424a1.393 1.393 0 0 1 .232 1.756c-.132.22-.309.397-.53.53a1.379 1.379 0 0 1-.715.192Zm8.438.053c-1.02 0-1.9-.212-2.643-.636a4.307 4.307 0 0 1-1.703-1.816c-.397-.786-.596-1.711-.596-2.775 0-1.047.199-1.966.596-2.757a4.512 4.512 0 0 1 1.683-1.855c.72-.446 1.566-.669 2.538-.669.627 0 1.219.102 1.775.305a4.008 4.008 0 0 1 1.484.928c.433.42.773.953 1.02 1.603.248.645.371 1.413.371 2.305v.736h-8.34V77.95h6.042a2.58 2.58 0 0 0-.298-1.225 2.169 2.169 0 0 0-.815-.855c-.345-.208-.747-.311-1.206-.311-.49 0-.921.119-1.292.357-.371.234-.66.543-.868.928-.203.38-.307.797-.311 1.252v1.411c0 .592.108 1.1.324 1.524.217.42.52.742.908.967.389.221.843.332 1.365.332.349 0 .664-.05.947-.146.283-.102.528-.25.736-.444a1.85 1.85 0 0 0 .47-.722l2.24.251a3.492 3.492 0 0 1-.81 1.55c-.392.438-.896.778-1.51 1.021-.614.239-1.316.358-2.107.358Zm8.297-10.375 2.054 3.756 2.087-3.756h2.537l-3.067 5.088L74.176 84h-2.524l-2.153-3.664L67.365 84h-2.544l3.1-5.088-3.02-5.088h2.544Zm13.615 0v1.855h-5.85v-1.855h5.85Zm-4.406-2.438h2.398v9.553c0 .323.049.57.146.742a.787.787 0 0 0 .398.345c.163.062.344.092.543.092.15 0 .287-.01.41-.033a3.58 3.58 0 0 0 .292-.06l.404 1.876a5.343 5.343 0 0 1-.55.145 4.5 4.5 0 0 1-.861.093c-.6.018-1.142-.073-1.623-.271a2.525 2.525 0 0 1-1.146-.941c-.278-.424-.415-.954-.411-1.59v-9.951Z"/>
  </mask>
  <path fill="#3E3E3E" d="M50.71 84.146a1.42 1.42 0 0 1-1.034-.424 1.373 1.373 0 0 1-.424-1.034 1.357 1.357 0 0 1 .424-1.02 1.42 1.42 0 0 1 1.034-.424c.388 0 .726.141 1.013.424a1.393 1.393 0 0 1 .232 1.756c-.132.22-.309.397-.53.53a1.379 1.379 0 0 1-.715.192Zm8.438.053c-1.02 0-1.9-.212-2.643-.636a4.307 4.307 0 0 1-1.703-1.816c-.397-.786-.596-1.711-.596-2.775 0-1.047.199-1.966.596-2.757a4.512 4.512 0 0 1 1.683-1.855c.72-.446 1.566-.669 2.538-.669.627 0 1.219.102 1.775.305a4.008 4.008 0 0 1 1.484.928c.433.42.773.953 1.02 1.603.248.645.371 1.413.371 2.305v.736h-8.34V77.95h6.042a2.58 2.58 0 0 0-.298-1.225 2.169 2.169 0 0 0-.815-.855c-.345-.208-.747-.311-1.206-.311-.49 0-.921.119-1.292.357-.371.234-.66.543-.868.928-.203.38-.307.797-.311 1.252v1.411c0 .592.108 1.1.324 1.524.217.42.52.742.908.967.389.221.843.332 1.365.332.349 0 .664-.05.947-.146.283-.102.528-.25.736-.444a1.85 1.85 0 0 0 .47-.722l2.24.251a3.492 3.492 0 0 1-.81 1.55c-.392.438-.896.778-1.51 1.021-.614.239-1.316.358-2.107.358Zm8.297-10.375 2.054 3.756 2.087-3.756h2.537l-3.067 5.088L74.176 84h-2.524l-2.153-3.664L67.365 84h-2.544l3.1-5.088-3.02-5.088h2.544Zm13.615 0v1.855h-5.85v-1.855h5.85Zm-4.406-2.438h2.398v9.553c0 .323.049.57.146.742a.787.787 0 0 0 .398.345c.163.062.344.092.543.092.15 0 .287-.01.41-.033a3.58 3.58 0 0 0 .292-.06l.404 1.876a5.343 5.343 0 0 1-.55.145 4.5 4.5 0 0 1-.861.093c-.6.018-1.142-.073-1.623-.271a2.525 2.525 0 0 1-1.146-.941c-.278-.424-.415-.954-.411-1.59v-9.951Z"/>
  <path fill="#DBDBDB" d="m49.676 83.722-1.654 1.68 1.654-1.68Zm-.424-1.034 2.357.026v-.052l-2.357.026Zm.424-1.02 1.654 1.68-1.654-1.68Zm2.047 0-1.653 1.68.006.006.006.006 1.641-1.692Zm.444 1.02 2.357.039v-.065l-2.357.026Zm-.212.736-2.003-1.243-.01.015-.008.015 2.021 1.213Zm-.53.53 1.2 2.028.007-.004.006-.003-1.213-2.021Zm-.715-2.165a.89.89 0 0 1 .334.07.897.897 0 0 1 .286.183l-3.308 3.36a3.777 3.777 0 0 0 2.688 1.1V81.79Zm.62.253a.955.955 0 0 1 .206.315.92.92 0 0 1 .073.357l-4.714-.051a3.729 3.729 0 0 0 1.127 2.738l3.308-3.359Zm.28.62a.977.977 0 0 1-.078.378.947.947 0 0 1-.202.308l-3.308-3.36a3.713 3.713 0 0 0-1.127 2.726l4.714-.052Zm-.28.686a.899.899 0 0 1-.285.183.901.901 0 0 1-.335.07v-4.714c-1.023 0-1.96.386-2.688 1.101l3.308 3.36Zm-.62.253a.962.962 0 0 1-.64-.253l3.307-3.36a3.753 3.753 0 0 0-2.667-1.101V83.6Zm-.628-.24a.902.902 0 0 1-.19-.286.951.951 0 0 1-.082-.36l4.714-.053a3.749 3.749 0 0 0-1.16-2.686l-3.282 3.384Zm-.272-.711a.966.966 0 0 1 .142-.468l4.007 2.484a3.77 3.77 0 0 0 .565-1.94l-4.714-.076Zm.124-.44a.814.814 0 0 1 .279-.278l2.425 4.043a3.88 3.88 0 0 0 1.339-1.339l-4.043-2.425Zm.29-.285a.996.996 0 0 1 .486-.136v4.714c.667 0 1.322-.17 1.916-.52l-2.401-4.058Zm6.281 1.638L55.321 85.6l.007.004.008.004 1.17-2.046Zm-1.703-1.816L52.7 82.811l.002.005 2.101-1.069Zm0-5.532L52.7 75.152l-.002.005 2.105 1.058Zm1.683-1.855 1.233 2.01.009-.006-1.242-2.004Zm4.313-.364-.808 2.214.01.004.011.004.787-2.222Zm1.484.928-1.65 1.683.01.009 1.64-1.692Zm1.02 1.603-2.202.839.002.005 2.2-.844Zm.371 3.04v2.358h2.358v-2.357h-2.358Zm-8.34 0h-2.358v2.358h2.357v-2.357Zm0-1.616v-2.357h-2.358v2.357h2.357Zm6.042 0v2.357h2.38l-.023-2.38-2.357.023Zm-.298-1.225-2.078 1.114.006.01 2.072-1.124Zm-.815-.855-1.217 2.019.011.007 1.206-2.026Zm-2.498.046 1.258 1.994.008-.006.008-.005-1.274-1.983Zm-.868.928-2.074-1.12-.005.008 2.079 1.112Zm-.311 1.252-2.357-.023v.023h2.357Zm.324 2.935-2.1 1.072.005.008 2.095-1.08Zm.908.967-1.182 2.04.009.005.008.005 1.165-2.05Zm2.312.186.766 2.229.016-.005.015-.006-.797-2.218Zm.736-.444-1.611-1.721 1.61 1.72Zm.47-.722.263-2.343-1.835-.206-.64 1.732 2.212.817Zm2.24.251 2.292.548.619-2.592-2.649-.298-.263 2.342Zm-.81 1.55-1.751-1.576h-.001l1.753 1.577Zm-1.51 1.021.854 2.197.007-.002.007-.003-.868-2.192Zm-2.107-2c-.69 0-1.15-.14-1.473-.325l-2.34 4.093c1.162.664 2.463.947 3.813.947v-4.714Zm-1.459-.316a1.953 1.953 0 0 1-.785-.846L52.7 82.816a6.664 6.664 0 0 0 2.62 2.785l2.368-4.076Zm-.783-.841c-.2-.395-.343-.941-.343-1.712H51.85c0 1.357.254 2.661.85 3.839l4.207-2.127Zm-.343-1.712c0-.746.14-1.29.345-1.698l-4.212-2.117c-.59 1.174-.847 2.467-.847 3.815h4.714Zm.343-1.693c.216-.428.485-.709.812-.91l-2.465-4.018c-1.113.683-1.966 1.638-2.554 2.8l4.207 2.128Zm.82-.915c.295-.183.698-.316 1.297-.316v-4.714c-1.345 0-2.634.313-3.78 1.023l2.484 4.007Zm1.297-.316c.367 0 .684.059.967.162l1.617-4.428a7.493 7.493 0 0 0-2.584-.448v4.714Zm.988.17c.235.083.436.208.622.39l3.299-3.368a6.37 6.37 0 0 0-2.346-1.466l-1.575 4.444Zm.63.398c.15.146.316.374.459.75l4.405-1.678c-.351-.923-.867-1.763-1.582-2.457l-3.281 3.385Zm.46.755c.12.31.215.778.215 1.461h4.715c0-1.1-.152-2.17-.528-3.15l-4.401 1.689Zm.215 1.461v.736h4.715v-.736h-4.715Zm2.357-1.621h-8.34v4.714h8.34V77.21Zm-5.983 2.357V77.95h-4.715v1.617h4.715Zm-2.358.74h6.043v-4.714h-6.043v4.714Zm8.4-2.38a4.932 4.932 0 0 0-.584-2.328l-4.143 2.25c-.003-.005-.002-.005.001.007.004.014.01.05.012.117l4.714-.046Zm-.578-2.317a4.526 4.526 0 0 0-1.687-1.766l-2.41 4.052a.184.184 0 0 1-.036-.03c-.017-.018-.023-.03-.022-.027l4.154-2.229Zm-1.676-1.76c-.761-.458-1.596-.649-2.422-.649v4.715c.052 0 .067.005.056.003a.307.307 0 0 1-.067-.03l2.433-4.038Zm-2.422-.649a4.69 4.69 0 0 0-2.567.733l2.55 3.965a.186.186 0 0 1-.045.02c-.003.002-.001 0 .008 0a.43.43 0 0 1 .054-.003v-4.715Zm-2.55.722a4.822 4.822 0 0 0-1.684 1.8l4.148 2.241a.136.136 0 0 1 .02-.03c.002-.002.01-.01.032-.024l-2.516-3.987Zm-1.688 1.809a5.025 5.025 0 0 0-.59 2.341l4.714.046a.322.322 0 0 1 .032-.163l-4.156-2.224Zm-.59 2.364v1.411h4.714v-1.411h-4.715Zm0 1.411c0 .876.16 1.769.582 2.596l4.199-2.144c-.011-.02-.067-.144-.067-.452h-4.715Zm.586 2.604a4.673 4.673 0 0 0 1.82 1.927L59 79.959l.006.005a.108.108 0 0 1 .012.011l.002.002a.22.22 0 0 1-.015-.026l-4.19 2.161Zm1.838 1.937c.8.453 1.669.639 2.53.639v-4.715a.76.76 0 0 1-.176-.016c-.025-.006-.03-.01-.025-.007l-2.329 4.099Zm2.53.639c.567 0 1.147-.08 1.713-.274l-1.532-4.458-.01.002a.944.944 0 0 1-.171.015v4.715Zm1.744-.285a4.459 4.459 0 0 0 1.55-.941l-3.222-3.442a.33.33 0 0 1 .053-.04l.025-.014 1.594 4.437Zm1.55-.941a4.206 4.206 0 0 0 1.07-1.627l-4.422-1.633a.595.595 0 0 1 .13-.182l3.221 3.442Zm-1.404-.1 2.239.25.526-4.684-2.239-.252-.526 4.685Zm.21-2.64c-.053.22-.14.38-.268.522l3.504 3.154a5.846 5.846 0 0 0 1.349-2.58l-4.586-1.095Zm-.269.523c-.121.134-.308.279-.625.404l1.735 4.384c.91-.36 1.73-.896 2.396-1.636l-3.506-3.152Zm-.611.399c-.294.114-.698.198-1.254.198v4.714c1.026 0 2.026-.155 2.96-.518l-1.706-4.394Zm7.043-7.82 2.068-1.131-.67-1.226h-1.398v2.357Zm2.054 3.756-2.069 1.131 2.052 3.753 2.077-3.74-2.06-1.144Zm2.087-3.756v-2.357h-1.387l-.674 1.212 2.06 1.145Zm2.537 0 2.019 1.217 2.154-3.574h-4.173v2.357Zm-3.067 5.088-2.019-1.217-.74 1.227.75 1.222 2.009-1.232ZM74.176 84v2.357h4.21l-2.2-3.59L74.175 84Zm-2.524 0-2.032 1.194.683 1.163h1.349V84Zm-2.153-3.664 2.032-1.194-2.042-3.474-2.027 3.482 2.037 1.186ZM67.365 84v2.357h1.356l.681-1.17L67.365 84Zm-2.544 0-2.012-1.227-2.184 3.584h4.196V84Zm3.1-5.088 2.014 1.226.738-1.21-.724-1.22-2.027 1.204Zm-3.02-5.088v-2.357H60.76l2.114 3.56 2.027-1.203Zm.476 1.13 2.053 3.757 4.137-2.262-2.054-3.756-4.136 2.261Zm6.182 3.77 2.087-3.756-4.12-2.289-2.088 3.757 4.121 2.289Zm.027-2.543h2.537v-4.714h-2.537v4.714Zm.518-3.574-3.067 5.088 4.037 2.434 3.068-5.088-4.038-2.434Zm-3.058 7.537 3.12 5.088 4.02-2.464-3.121-5.088-4.019 2.464Zm5.13 1.499h-2.524v4.714h2.524v-4.714Zm-.492 1.163-2.153-3.664-4.064 2.389 2.153 3.663 4.064-2.388Zm-6.222-3.656-2.134 3.664 4.074 2.372 2.134-3.664-4.074-2.372Zm-.097 2.493h-2.544v4.714h2.544v-4.714Zm-.53 3.584 3.1-5.089-4.026-2.453-3.1 5.088 4.025 2.454Zm3.114-7.519-3.021-5.088-4.054 2.407 3.021 5.088 4.054-2.407ZM64.9 76.181h2.544v-4.714H64.9v4.714Zm16.159-2.357h2.357v-2.357H81.06v2.357Zm0 1.855v2.357h2.357v-2.357H81.06Zm-5.85 0h-2.357v2.357h2.357v-2.357Zm0-1.855v-2.357h-2.357v2.357h2.357Zm1.444-2.438v-2.358h-2.357v2.358h2.357Zm2.398 0h2.357v-2.358h-2.357v2.358Zm.146 10.295-2.053 1.158.018.032.019.03 2.016-1.22Zm.398.345-.835 2.204.835-2.204Zm.954.06-.4-2.324-.015.003.415 2.32Zm.291-.06 2.304-.497-.521-2.418-2.39.637.607 2.278Zm.404 1.875.769 2.228 1.976-.681-.44-2.044-2.305.497Zm-.55.145-.511-2.3-.01.001.521 2.3Zm-.861.093-.061-2.356h-.008l.069 2.356Zm-1.623-.271-.917 2.171.009.004.008.003.9-2.178Zm-1.146-.941-1.971 1.293.005.007.004.007 1.962-1.307Zm-.411-1.59 2.357.016v-.016h-2.357Zm2.049-7.513v1.855h4.714v-1.855h-4.714Zm2.357-.502h-5.85v4.714h5.85v-4.714Zm-3.493 2.357v-1.855h-4.714v1.855h4.714Zm-2.357.502h5.85v-4.714h-5.85v4.714Zm1.444-2.438h2.398v-4.715h-2.398v4.715Zm.041-2.357v9.553h4.714v-9.553h-4.714Zm0 9.553c0 .5.065 1.218.45 1.9l4.106-2.316c.104.184.14.33.15.39.013.06.008.075.008.026h-4.714Zm.487 1.963a3.14 3.14 0 0 0 1.58 1.328l1.668-4.409c.39.148.648.415.785.64L77.18 82.9Zm1.58 1.328c.463.176.932.246 1.377.246V79.76c.047 0 .154.008.29.06l-1.668 4.41Zm1.377.246c.263 0 .541-.02.825-.07l-.829-4.641c.02-.004.03-.004.03-.004h-.026v4.715Zm.811-.068c.148-.025.328-.06.498-.105l-1.214-4.555a.707.707 0 0 1 .024-.006l-.012.002-.097.018.801 4.646Zm-2.413-1.886.404 1.875 4.608-.993-.404-1.875-4.608.993Zm1.94-.85c.007-.002-.013.005-.07.02a5.74 5.74 0 0 1-.223.053l1.023 4.602c.268-.06.553-.13.807-.218l-1.537-4.457Zm-.302.075a2.328 2.328 0 0 1-.402.036l.122 4.713a6.83 6.83 0 0 0 1.32-.15l-1.04-4.599Zm-.41.036c-.32.01-.524-.04-.655-.094l-1.799 4.357c.832.344 1.71.475 2.592.45l-.138-4.713Zm-.638-.087c-.067-.029-.081-.047-.101-.077l-3.923 2.615a4.882 4.882 0 0 0 2.191 1.805l1.833-4.343Zm-.092-.063c.014.02.01.023 0-.011a1.083 1.083 0 0 1-.024-.269l-4.714-.033c-.007.983.206 1.999.797 2.9l3.941-2.587Zm-.024-.296v-9.951h-4.714v9.95h4.714Z" mask="url(#a)"/>
</svg>
