<svg width="80" height="80" viewBox="0 0 80 80" fill="none" xmlns="http://www.w3.org/2000/svg">
<path d="M75.9075 14.2154V33.5539M75.9075 33.5539H56.5691M75.9075 33.5539L60.9525 19.5013C57.4885 16.0356 53.203 13.5038 48.4959 12.1423C43.7888 10.7808 38.8136 10.6338 34.0343 11.7152C29.2551 12.7965 24.8277 15.071 21.1652 18.3262C17.5027 21.5815 14.7245 25.7114 13.0899 30.3308M5 65.7846V46.4461M5 46.4461H24.3384M5 46.4461L19.955 60.4987C23.419 63.9644 27.7045 66.4962 32.4116 67.8577C37.1187 69.2192 42.094 69.3662 46.8732 68.2848C51.6524 67.2035 56.0798 64.929 59.7423 61.6738C63.4048 58.4185 66.183 54.2886 67.8176 49.6692" stroke="#C1C1C1" stroke-width="6.44614" stroke-linecap="round" stroke-linejoin="round"/>
</svg>
