<?xml version="1.0" encoding="UTF-8" standalone="no"?>
<!-- Created with Inkscape (http://www.inkscape.org/) -->

<svg
   width="10.719614mm"
   height="10.719614mm"
   viewBox="0 0 10.719614 10.719614"
   version="1.1"
   id="svg1"
   xml:space="preserve"
   xmlns="http://www.w3.org/2000/svg"
   xmlns:svg="http://www.w3.org/2000/svg"><defs
     id="defs1" /><g
     id="layer1"
     transform="translate(-254.25178,257.91961)"><path
       id="rect40"
       style="font-variation-settings:normal;opacity:1;vector-effect:none;fill:#5555ff;fill-opacity:1;stroke:none;stroke-width:0.499999;stroke-linecap:square;stroke-linejoin:round;stroke-miterlimit:4;stroke-dasharray:none;stroke-dashoffset:0;stroke-opacity:1;-inkscape-stroke:none;paint-order:stroke fill markers"
       d="m 258.44952,-257.91962 c -0.28063,0 -0.50656,0.22591 -0.50656,0.50656 v 3.18458 h -3.1846 c -0.28063,0 -0.50656,0.22593 -0.50656,0.50656 v 2.32419 c 0,0.28063 0.22593,0.50655 0.50656,0.50655 h 3.1846 v 3.18461 c 0,0.28063 0.22593,0.50656 0.50656,0.50656 h 2.32419 c 0.28063,0 0.50655,-0.22593 0.50655,-0.50656 v -3.18461 h 3.18459 c 0.28063,0 0.50656,-0.22592 0.50656,-0.50655 v -2.32419 c 0,-0.28063 -0.22593,-0.50656 -0.50656,-0.50656 h -3.18459 v -3.18458 c 0,-0.28065 -0.22592,-0.50656 -0.50655,-0.50656 z" /></g></svg>
