<svg width="80" height="80" viewBox="0 0 80 80" fill="none" xmlns="http://www.w3.org/2000/svg">
<path d="M12 20.6H18.3M18.3 20.6H68.7M18.3 20.6V64.7C18.3 66.3709 18.9637 67.9733 20.1452 69.1548C21.3267 70.3363 22.9291 71 24.6 71H56.1C57.7709 71 59.3733 70.3363 60.5548 69.1548C61.7363 67.9733 62.4 66.3709 62.4 64.7V20.6M27.75 20.6V14.3C27.75 12.6291 28.4137 11.0267 29.5952 9.84523C30.7767 8.66375 32.3791 8 34.05 8H46.65C48.3209 8 49.9233 8.66375 51.1048 9.84523C52.2863 11.0267 52.95 12.6291 52.95 14.3V20.6M34.05 36.35V55.25M46.65 36.35V55.25" stroke="#1C1919" stroke-width="6.3" stroke-linecap="round" stroke-linejoin="round"/>
</svg>
