<?xml version="1.0" encoding="UTF-8" standalone="no"?>
<!-- Created with Inkscape (http://www.inkscape.org/) -->

<svg
   width="10.240331mm"
   height="12.769328mm"
   viewBox="0 0 10.240331 12.769328"
   version="1.1"
   id="svg1"
   xml:space="preserve"
   xmlns="http://www.w3.org/2000/svg"
   xmlns:svg="http://www.w3.org/2000/svg"><defs
     id="defs1" /><g
     id="layer1"
     transform="translate(-294.87896,259.42108)"><path
       style="fill:#000000;stroke-width:1"
       d="m 297.45102,-246.70485 c -0.28061,-0.11406 -0.57802,-0.38024 -0.70688,-0.63283 l -0.12541,-0.24598 -0.0674,-0.9872 c -0.20214,-2.96162 -0.40149,-5.70429 -0.43992,-6.05262 l -0.0438,-0.3962 -0.36298,-0.0324 -0.36298,-0.0324 -0.14379,-0.1283 c -0.24119,-0.21506 -0.31889,-0.49706 -0.31889,-1.15746 v -0.61568 l 0.0903,-0.17353 c 0.0497,-0.0955 0.16758,-0.2458 0.26202,-0.33414 l 0.17172,-0.16056 1.39254,-0.0321 1.39253,-0.0321 0.0182,-0.76705 c 0.0108,-0.43067 0.0488,-0.80403 0.0881,-0.85137 l 0.0699,-0.0843 h 1.60746 1.60748 l 0.0854,0.11244 0.0854,0.11244 0.002,0.75499 0.002,0.75499 h 1.37654 1.37654 l 0.20643,0.1737 c 0.50959,0.42879 0.54887,1.8665 0.0629,2.29986 l -0.14379,0.1283 -0.363,0.0324 -0.36298,0.0324 -0.0452,0.41765 c -0.0249,0.22971 -0.13262,1.67542 -0.23942,3.21271 -0.10685,1.5373 -0.21151,3.02826 -0.23264,3.31327 l -0.0384,0.51818 -0.14037,0.25019 c -0.0771,0.13767 -0.26544,0.33813 -0.41831,0.44564 l -0.27798,0.19543 -2.45229,0.0126 c -1.52408,0.009 -2.51236,-0.0108 -2.61102,-0.0514 z m 4.98804,-0.58688 0.20299,-0.111 0.0978,-0.27445 c 0.0539,-0.151 0.11478,-0.57806 0.1355,-0.94913 0.0207,-0.37107 0.0806,-1.23849 0.13335,-1.92762 0.0526,-0.68913 0.15334,-2.05963 0.22379,-3.04555 0.0742,-1.03803 0.15839,-1.82913 0.20014,-1.87944 l 0.0721,-0.0868 h 0.4052 0.4052 l 0.1009,-0.10091 0.10091,-0.10091 v -0.59297 -0.59298 l -0.0771,-0.0771 -0.0771,-0.0771 h -4.37573 -4.37571 l -0.0771,0.0771 -0.0771,0.0771 v 0.59298 0.59297 l 0.10091,0.10091 0.10091,0.10091 h 0.40518 0.4052 l 0.0764,0.0921 0.0764,0.0921 0.15604,2.20505 c 0.0858,1.21278 0.20933,2.92792 0.27449,3.8114 l 0.11839,1.60638 0.10847,0.20882 c 0.0596,0.11479 0.11497,0.20926 0.12289,0.2098 0.007,5.2e-4 0.1301,0.0434 0.27143,0.0951 l 0.25702,0.0942 2.15252,-0.0144 2.15252,-0.0144 z m -4.18419,-1.31858 c -0.0476,-0.12361 -0.22109,-1.50532 -0.42426,-3.37878 l -0.13118,-1.21017 0.0755,-0.091 c 0.0414,-0.0501 0.14488,-0.091 0.22964,-0.091 h 0.15424 l 0.0587,0.14451 c 0.0324,0.0795 0.089,0.41926 0.12595,0.75499 0.32773,2.98294 0.39547,3.69936 0.36231,3.83146 l -0.0382,0.15226 h -0.18466 -0.18468 z m 1.52025,0.0353 -0.0771,-0.0771 v -2.28747 -2.28744 l 0.0771,-0.0771 c 0.0991,-0.0991 0.32496,-0.0991 0.42408,0 l 0.0771,0.0771 v 2.28744 2.28747 l -0.0771,0.0771 c -0.0423,0.0424 -0.13785,0.0771 -0.21205,0.0771 -0.0742,0 -0.16956,-0.0348 -0.21203,-0.0771 z m 1.50783,0.0342 c -0.0712,-0.0712 -0.0492,-0.50957 0.0861,-1.72417 0.0708,-0.63611 0.17388,-1.56059 0.22884,-2.05437 0.055,-0.49378 0.13064,-0.93473 0.16812,-0.97988 0.0991,-0.11947 0.35932,-0.10037 0.42992,0.0315 l 0.0607,0.11352 -0.15317,1.34823 c -0.0843,0.74155 -0.19918,1.75234 -0.2554,2.24622 -0.0562,0.49387 -0.1328,0.93482 -0.17028,0.97987 -0.0719,0.0867 -0.32262,0.11136 -0.39495,0.0391 z m -3.38358,-6.89573 -0.0692,-0.12938 0.0692,-0.12938 0.0692,-0.12938 1.99822,0.0162 1.99824,0.0162 0.0708,0.11244 0.071,0.11244 -0.071,0.11244 -0.0708,0.11244 -1.99824,0.0162 -1.99822,0.0162 z m 3.26285,-2.84417 -0.0186,-0.59435 h -1.18871 -1.18869 l -0.0189,0.50834 c -0.0108,0.27961 -0.004,0.54706 0.0144,0.59436 l 0.033,0.086 h 1.19312 1.19314 z"
       id="path42" /></g></svg>
