<?xml version="1.0" encoding="UTF-8" standalone="no"?>
<!-- Created with Inkscape (http://www.inkscape.org/) -->

<svg
   width="12.556758mm"
   height="12.53772mm"
   viewBox="0 0 12.556758 12.53772"
   version="1.1"
   id="svg1"
   xml:space="preserve"
   xmlns="http://www.w3.org/2000/svg"
   xmlns:svg="http://www.w3.org/2000/svg"><defs
     id="defs1" /><g
     id="layer1"
     transform="translate(-272.44402,258.82867)"><path
       style="fill:#000000;stroke-width:1"
       d="m 272.74296,-246.36263 c -0.0773,-0.0391 -0.17604,-0.14541 -0.21963,-0.23626 l -0.0793,-0.16524 0.34412,-1.37083 c 0.18927,-0.75396 0.41925,-1.53138 0.51107,-1.72759 l 0.16686,-0.35676 4.06117,-4.06272 c 4.22801,-4.22959 4.29965,-4.29542 4.84452,-4.45114 l 0.33404,-0.0955 0.38101,0.0319 0.38102,0.0319 0.35802,0.17082 c 0.65224,0.3113 1.08133,0.94502 1.14372,1.68919 l 0.0312,0.37094 -0.0955,0.33404 c -0.15587,0.54555 -0.22279,0.61835 -4.45073,4.84445 l -4.06286,4.06111 -0.36278,0.16974 c -0.3013,0.14091 -2.87143,0.83633 -3.08132,0.83363 -0.0353,-4.7e-4 -0.12757,-0.0328 -0.20471,-0.0719 z m 1.87027,-1.36311 c 1.09243,-0.27429 0.87885,-0.0982 4.41971,-3.64331 l 3.17297,-3.17671 -0.74398,-0.74398 -0.74396,-0.74395 -3.17673,3.17294 c -1.74719,1.74514 -3.23664,3.27406 -3.30987,3.39761 -0.1074,0.18122 -0.53364,1.68768 -0.53364,1.88607 0,0.0768 0.0494,0.0688 0.9155,-0.14866 z m 8.78867,-8.01869 c 0.69804,-0.71515 0.77391,-1.18767 0.27528,-1.71453 -0.52755,-0.55742 -1.06214,-0.47657 -1.80771,0.27339 l -0.44523,0.44785 0.72804,0.73039 c 0.86336,0.86616 0.69529,0.83081 1.24962,0.2629 z"
       id="path41" /></g></svg>
