<svg xmlns="http://www.w3.org/2000/svg" width="100" height="100" fill="none" viewBox="0 0 100 100">
  <path stroke="#BB9A17" stroke-width="5.246" d="M86.066 79.016H16.442a5.246 5.246 0 0 1-5.245-5.129L10.12 25.362A5.246 5.246 0 0 1 15.364 20h9.062c1.651 0 3.206.777 4.197 2.098l6.295 8.394m51.148 48.524v-36.72a5.246 5.246 0 0 0-5.246-5.247H42.685c-1.593 0-3.1-.724-4.096-1.969l-3.671-4.588m51.148 48.524 3.533-49.462a5.246 5.246 0 0 0-5.233-5.62H40.53a5.246 5.246 0 0 0-5.144 4.217l-.468 2.34"/>
</svg>
