<svg width="195" height="183" viewBox="0 0 195 183" fill="none" xmlns="http://www.w3.org/2000/svg">
<circle cx="94.8328" cy="61.9377" r="59.5669" fill="#239AE3" fill-opacity="0.5" stroke="white" stroke-width="4.74164"/>
<circle cx="61.9377" cy="120.418" r="59.5669" fill="#BD48BB" fill-opacity="0.5" stroke="white" stroke-width="4.74164"/>
<circle cx="133.062" cy="120.418" r="59.5669" fill="#3819C1" fill-opacity="0.5" stroke="white" stroke-width="4.74164"/>
<path fill-rule="evenodd" clip-rule="evenodd" d="M74.0004 118.268C74.0703 99.5176 83.2764 82.9212 97.3987 72.6985C111.439 82.2724 120.938 98.0126 122 116.022C114.125 120.19 105.145 122.551 95.6142 122.551C87.9583 122.551 80.6582 121.028 74.0004 118.268Z" fill="#C19419"/>
<path d="M74.0004 118.268L71.6296 118.259L71.6236 119.849L73.0925 120.458L74.0004 118.268ZM97.3987 72.6985L98.7344 70.7397L97.358 69.8012L96.0085 70.778L97.3987 72.6985ZM122 116.022L123.109 118.117L124.456 117.404L124.367 115.882L122 116.022ZM76.3712 118.277C76.4382 100.316 85.2538 84.4166 98.7889 74.619L96.0085 70.778C81.2991 81.4257 71.7025 98.7197 71.6296 118.259L76.3712 118.277ZM96.063 74.6573C109.52 83.8333 118.617 98.9135 119.633 116.161L124.367 115.882C123.26 97.1118 113.358 80.7115 98.7344 70.7397L96.063 74.6573ZM120.891 113.926C113.349 117.918 104.749 120.18 95.6142 120.18V124.922C105.541 124.922 114.9 122.462 123.109 118.117L120.891 113.926ZM95.6142 120.18C88.2753 120.18 81.2833 118.72 74.9082 116.078L73.0925 120.458C80.0331 123.335 87.6414 124.922 95.6142 124.922V120.18Z" fill="white"/>
</svg>
