<svg xmlns="http://www.w3.org/2000/svg" width="100" height="100" fill="none" viewBox="0 0 100 100">
  <g opacity=".4">
    <mask id="a" fill="#fff">
      <path fill-rule="evenodd" d="M25.195 12A6.195 6.195 0 0 0 19 18.195v31.862l13.276-6.638 15.488 7.966 14.604-10.62 8.85 6.637 8.851-6.437v-22.77A6.195 6.195 0 0 0 73.874 12H25.195ZM80.07 48.224 69.45 58.466l-7.081-7.081-14.604 11.063-15.488-7.523L19 59.611v23.194A6.195 6.195 0 0 0 25.195 89h48.679a6.195 6.195 0 0 0 6.195-6.195v-34.58Z" clip-rule="evenodd"/>
    </mask>
    <path fill="#E0E0E0" d="M19 50.057h-3.54v5.729l5.123-2.562L19 50.057Zm13.276-6.638 1.619-3.148-1.597-.82-1.605.802 1.583 3.166Zm15.488 7.966-1.619 3.148 1.939.997 1.763-1.282-2.083-2.863Zm14.604-10.62 2.124-2.833-2.092-1.569-2.114 1.538 2.082 2.863Zm8.85 6.637-2.124 2.832 2.092 1.57 2.115-1.539-2.083-2.863Zm8.851-6.437 2.082 2.864 1.458-1.06v-1.803h-3.54Zm-10.62 17.5-2.504 2.504 2.458 2.458 2.503-2.413-2.458-2.549Zm10.62-10.24h3.54v-8.333l-5.997 5.784 2.457 2.548Zm-17.701 3.16 2.503-2.503L62.69 46.7l-2.459 1.863 2.138 2.822ZM47.764 62.448l-1.546 3.185 1.953.949 1.731-1.312-2.138-2.822Zm-15.488-7.523 1.547-3.184-1.33-.646-1.395.492 1.178 3.338ZM19 59.611l-1.178-3.338-2.362.833v2.505H19Zm3.54-41.416a2.655 2.655 0 0 1 2.655-2.655V8.46c-5.376 0-9.735 4.359-9.735 9.735h7.08Zm0 31.862V18.195h-7.08v31.862h7.08Zm8.153-9.804-13.276 6.638 3.166 6.333 13.276-6.638-3.166-6.333Zm18.69 7.984L33.895 40.27l-3.238 6.297 15.488 7.965 3.238-6.296ZM60.286 37.9 45.682 48.52l4.165 5.727 14.603-10.62-4.164-5.727Zm13.056 6.67-8.85-6.639-4.248 5.664 8.85 6.639 4.249-5.665Zm4.645-6.469-8.85 6.437 4.164 5.726 8.85-6.436-4.164-5.727Zm-1.458-19.907v22.77h7.08v-22.77h-7.08Zm-2.655-2.655a2.655 2.655 0 0 1 2.655 2.655h7.08c0-5.376-4.359-9.735-9.735-9.735v7.08Zm-48.679 0h48.679V8.46H25.195v7.08Zm46.71 45.474 10.621-10.242-4.914-5.096L66.99 55.917l4.915 5.097Zm-12.04-7.126 7.08 7.08 5.007-5.006-7.08-7.08-5.008 5.006ZM49.901 65.27l14.604-11.063-4.276-5.644-14.603 11.063 4.275 5.644ZM30.73 58.11l15.489 7.523 3.093-6.37-15.488-7.522-3.094 6.369Zm-10.55 4.84 13.275-4.686-2.356-6.677-13.276 4.685 2.356 6.677Zm2.361 19.855V59.61h-7.08v23.194h7.08Zm2.655 2.655a2.655 2.655 0 0 1-2.655-2.655h-7.08c0 5.376 4.359 9.735 9.735 9.735v-7.08Zm48.679 0h-48.68v7.08h48.679v-7.08Zm2.655-2.655a2.655 2.655 0 0 1-2.655 2.655v7.08c5.376 0 9.735-4.359 9.735-9.735h-7.08Zm0-34.58v34.58h7.08v-34.58h-7.08Z" mask="url(#a)"/>
  </g>
  <path fill="#fff" d="M39.796 54.183v-.364c0-1.006.083-1.808.25-2.406.17-.598.42-1.078.745-1.439a5.733 5.733 0 0 1 1.19-1.003c.373-.237.704-.477.994-.72.297-.248.53-.515.702-.799.172-.284.258-.607.258-.968a1.7 1.7 0 0 0-.25-.923 1.634 1.634 0 0 0-.683-.613 2.026 2.026 0 0 0-.95-.222c-.35 0-.678.08-.986.24a2.01 2.01 0 0 0-.746.684c-.19.29-.287.642-.293 1.056h-4.084c.017-1.243.304-2.261.86-3.055a4.996 4.996 0 0 1 2.23-1.758c.923-.385 1.941-.577 3.054-.577 1.22 0 2.303.19 3.25.568.954.38 1.703.939 2.247 1.679.545.74.817 1.645.817 2.717 0 .704-.118 1.326-.355 1.865a4.507 4.507 0 0 1-.995 1.43c-.42.408-.914.78-1.483 1.118-.444.26-.814.533-1.11.817-.29.285-.509.61-.657.977-.148.361-.222.805-.222 1.332v.364h-3.783Zm1.963 5.825c-.64 0-1.187-.225-1.643-.674a2.195 2.195 0 0 1-.666-1.634 2.146 2.146 0 0 1 .666-1.608 2.255 2.255 0 0 1 1.643-.675c.61 0 1.145.225 1.607.675a2.18 2.18 0 0 1 .364 2.771c-.213.35-.494.627-.843.835-.344.207-.72.31-1.128.31Zm12.567-5.825v-.364c0-1.006.083-1.808.249-2.406.172-.598.42-1.078.746-1.439a5.733 5.733 0 0 1 1.19-1.003c.373-.237.704-.477.994-.72.296-.248.53-.515.702-.799.172-.284.257-.607.257-.968 0-.349-.082-.657-.248-.923a1.634 1.634 0 0 0-.684-.613 2.025 2.025 0 0 0-.95-.222c-.35 0-.678.08-.986.24a2.01 2.01 0 0 0-.746.684c-.19.29-.287.642-.293 1.056h-4.085c.018-1.243.305-2.261.862-3.055a4.995 4.995 0 0 1 2.229-1.758c.923-.385 1.941-.577 3.054-.577 1.22 0 2.303.19 3.25.568.954.38 1.703.939 2.247 1.679.545.74.817 1.645.817 2.717 0 .704-.118 1.326-.355 1.865a4.507 4.507 0 0 1-.995 1.43c-.42.408-.914.78-1.483 1.118-.444.26-.814.533-1.11.817-.29.285-.509.61-.657.977-.148.361-.222.805-.222 1.332v.364h-3.783Zm1.963 5.825c-.64 0-1.187-.225-1.643-.674a2.195 2.195 0 0 1-.666-1.634 2.146 2.146 0 0 1 .666-1.608 2.255 2.255 0 0 1 1.643-.675c.61 0 1.145.225 1.607.675a2.179 2.179 0 0 1 .364 2.771c-.213.35-.494.627-.843.835-.344.207-.72.31-1.128.31Z"/>
  <circle cx="50" cy="50" r="20" stroke="#fff" stroke-width="4"/>
</svg>
